<svg width="8" height="14" viewBox="0 0 8 14" fill="none" xmlns="http://www.w3.org/2000/svg">
<path d="M6.86111 2.66667H4.69444C4.29556 2.66667 3.97222 2.99002 3.97222 3.38889V5.55556H6.86111C6.94323 5.55374 7.02116 5.59196 7.06998 5.65804C7.1188 5.72412 7.13252 5.80978 7.10667 5.88778L6.57222 7.47667C6.52297 7.62248 6.38668 7.72107 6.23278 7.72222H3.97222V13.1389C3.97222 13.3383 3.81052 13.5 3.61111 13.5H1.80556C1.60612 13.5 1.44444 13.3383 1.44444 13.1389V7.72222H0.361111C0.161677 7.72222 0 7.56052 0 7.36111V5.91667C0 5.71726 0.161677 5.55556 0.361111 5.55556H1.44444V3.38889C1.44444 1.7934 2.73787 0.5 4.33333 0.5H6.86111C7.06052 0.5 7.22222 0.661677 7.22222 0.861111V2.30556C7.22222 2.50499 7.06052 2.66667 6.86111 2.66667Z" fill="white"/>
</svg>
