<svg width="16" height="15" viewBox="0 0 16 15" fill="none" xmlns="http://www.w3.org/2000/svg">
<path fill-rule="evenodd" clip-rule="evenodd" d="M11.3333 0H4.66667C2.36548 0 0.5 1.86548 0.5 4.16667V10.8333C0.5 13.1345 2.36548 15 4.66667 15H11.3333C13.6345 15 15.5 13.1345 15.5 10.8333V4.16667C15.5 1.86548 13.6345 0 11.3333 0ZM14.0417 10.8333C14.0371 12.3272 12.8272 13.5371 11.3333 13.5417H4.66667C3.17279 13.5371 1.96291 12.3272 1.95833 10.8333V4.16667C1.96291 2.67279 3.17279 1.46291 4.66667 1.45833H11.3333C12.8272 1.46291 14.0371 2.67279 14.0417 4.16667V10.8333ZM11.9583 4.375C12.4186 4.375 12.7917 4.0019 12.7917 3.54167C12.7917 3.08143 12.4186 2.70833 11.9583 2.70833C11.4981 2.70833 11.125 3.08143 11.125 3.54167C11.125 4.0019 11.4981 4.375 11.9583 4.375ZM8 3.75C5.92893 3.75 4.25 5.42893 4.25 7.5C4.25 9.57108 5.92893 11.25 8 11.25C10.0711 11.25 11.75 9.57108 11.75 7.5C11.7522 6.50475 11.3578 5.54964 10.6541 4.8459C9.95033 4.14216 8.99525 3.74778 8 3.75ZM5.70833 7.5C5.70833 8.76567 6.73433 9.79167 8 9.79167C9.26567 9.79167 10.2917 8.76567 10.2917 7.5C10.2917 6.23433 9.26567 5.20833 8 5.20833C6.73433 5.20833 5.70833 6.23433 5.70833 7.5Z" fill="white"/>
</svg>
